PathFileType	4	(X/Y/Z)	Run_500 02
DataRate	CameraRate	NumFrames	NumMarkers	Units	OrigDataRate	OrigDataStartFrame	OrigNumFrames
120	120	5	42	mm	120	153	128
Frame#	Time	LASI			RASI			LPSI			RPSI			RTH1			RTH2			RTH3			LTH1			LTH2			LTH3			RTB1			RTB2			LTB1			LTB2			LTB3			RCAL			RTOE			RMT5			LCAL			LTOE			LMT5			LACR			RACR			CLAV			C7			RUA1			RUA2			RUA3			RLEL			RMEL			LUA1			LUA2			LUA3			LLEL			LMEL			RFAsuperior			RFAradius			RFAulna			LFAsuperior			LFAradius			LFAulna			RTB3			
		X1	Y1	Z1	X2	Y2	Z2	X3	Y3	Z3	X4	Y4	Z4	X5	Y5	Z5	X6	Y6	Z6	X7	Y7	Z7	X8	Y8	Z8	X9	Y9	Z9	X10	Y10	Z10	X11	Y11	Z11	X12	Y12	Z12	X13	Y13	Z13	X14	Y14	Z14	X15	Y15	Z15	X16	Y16	Z16	X17	Y17	Z17	X18	Y18	Z18	X19	Y19	Z19	X20	Y20	Z20	X21	Y21	Z21	X22	Y22	Z22	X23	Y23	Z23	X24	Y24	Z24	X25	Y25	Z25	X26	Y26	Z26	X27	Y27	Z27	X28	Y28	Z28	X29	Y29	Z29	X30	Y30	Z30	X31	Y31	Z31	X32	Y32	Z32	X33	Y33	Z33	X34	Y34	Z34	X35	Y35	Z35	X36	Y36	Z36	X37	Y37	Z37	X38	Y38	Z38	X39	Y39	Z39	X40	Y40	Z40	X41	Y41	Z41	X42	Y42	Z42	

148	1.391667	969.731106	1058.619303	-771.201101	982.293627	1078.923115	-516.989151	799.394617	1117.35831	-675.678352	801.870042	1113.901579	-589.834777	971.89413	927.310399	-459.000419	1084.48423	872.036456	-471.2807	1093.372205	745.512154	-503.974438	802.396976	881.920195	-811.100882	784.8092370000001	751.85022	-792.1945930000001	669.846441	692.665518	-751.390133	1248.783733	513.677775	-584.4478329999999	1216.873745	449.174397	-517.544187	576.469457	465.948891	-688.187688	488.972213	424.228047	-730.474184	434.831235	322.203663	-663.896479	1086.676494	201.810662	-609.429978	1318.97927	171.739627	-629.128181	1251.066059	138.165773	-541.536865	283.71659	315.697051	-638.276752	381.209433	103.096242	-618.1530330000001	311.669111	141.948741	-699.743034	1002.528922	1548.536935	-784.780585	917.288942	1563.458193	-464.652531	998.363619	1499.200189	-577.027604	889.880973	1577.945028	-645.671195	835.002157	1516.528861	-401.417035	784.077096	1442.331533	-401.39618	719.468045	1488.213903	-419.777778	602.815713	1402.871232	-386.934714	607.967188	1393.577306	-469.486912	1018.225088	1453.647349	-852.598161	1038.218415	1386.277987	-840.162627	952.350644	1354.398581	-875.306496	1003.637059	1193.393006	-914.435882	937.1338029999999	1173.303374	-856.613236	669.518114	1326.529321	-357.909307	804.029551	1203.084817	-398.597461	754.452127	1178.768734	-351.322137	1073.533462	1241.187467	-858.560253	1119.929798	1340.624578	-716.901809	1167.328847	1285.214177	-720.4666089999999	1214.476715	350.389147	-591.191527	
149	1.4	972.514201	1061.138412	-771.755422	984.345673	1079.525225	-517.618389	803.071519	1121.873739	-677.484559	805.348685	1116.560753	-591.66198	970.440688	923.742035	-461.421243	1083.411896	868.413869	-471.718266	1090.116438	740.668591	-503.310912	801.1762649999999	888.562757	-812.111911	781.673357	757.428342	-793.490912	666.403352	700.38257	-750.1633849999999	1255.466885	507.149213	-583.343577	1229.693255	439.451627	-516.9480600000001	565.669865	476.709048	-686.250679	477.539732	437.749817	-729.590638	417.398327	339.583654	-662.493904	1129.97209	179.132008	-610.418264	1363.932492	175.900361	-631.0937699999999	1300.836254	133.141739	-544.340939	265.745573	339.34157	-636.100068	355.951047	122.939736	-622.201231	287.184518	166.589377	-702.216871	1003.246041	1553.110655	-783.0145680000001	915.555312	1565.844759	-465.246125	998.109731	1501.90777	-575.585289	889.74382	1580.228152	-645.905742	832.354236	1520.875562	-403.219658	780.758717	1447.468037	-402.264687	716.788898	1492.960323	-423.788718	599.073188	1408.642142	-390.210588	605.581741	1397.615174	-472.373777	1019.783274	1459.200767	-851.607961	1039.424453	1391.528907	-838.966768	954.6691	1360.668151	-876.77736	1004.234459	1198.297401	-913.994671	935.986447	1178.864545	-857.727217	665.891713	1333.424954	-359.208096	802.127496	1210.00426	-396.786034	752.48286	1186.225991	-349.431496	1072.740707	1246.362426	-856.605667	1116.023963	1346.678163	-714.694685	1163.457674	1291.105924	-717.169853	1239.787105	340.921873	-590.724156	
150	1.408333	974.910945	1063.37757	-772.237262	986.032287	1079.234191	-517.6414129999999	806.002605	1125.619416	-677.967975	808.37216	1117.839352	-592.262893	969.426549	920.215139	-463.375297	1081.88926	863.650322	-471.225736	1085.793994	734.617755	-502.903911	801.704152	893.136896	-812.5952579999999	781.67502	760.788229	-793.9495429999999	665.849766	704.7197159999999	-750.362454	1259.337046	499.703875	-582.666761	1239.37432	429.729567	-516.446252	556.9156390000001	485.367458	-685.4696709999999	466.885027	450.808623	-728.88144	400.749869	357.344089	-660.878913	1170.845934	160.364443	-611.263526	1403.534751	183.239346	-631.360185	1345.873109	131.639591	-546.1338950000001	247.071274	363.690765	-631.622158	332.292723	145.097026	-625.929298	263.886003	193.242122	-703.892022	1003.934962	1556.786793	-781.676202	914.397293	1567.453216	-465.40767	998.048598	1503.998469	-574.2542539999999	889.592862	1582.017053	-646.246042	830.687302	1523.496447	-404.276778	778.58681	1450.64617	-402.893651	715.167988	1495.804991	-426.912086	596.451847	1412.414222	-392.635326	604.093282	1399.588302	-474.321867	1021.103651	1463.68781	-850.9294	1040.350071	1395.536268	-837.987894	956.72553	1365.813898	-878.175078	1004.110113	1202.307804	-914.0622499999999	934.094869	1183.639817	-859.441511	663.872344	1338.559622	-359.791783	801.5544640000001	1215.480631	-394.287686	752.129934	1192.194704	-346.712916	1071.622006	1250.06683	-855.286802	1112.406778	1350.544314	-712.69151	1159.531756	1294.657677	-714.407686	1261.957427	332.66597	-590.154722	
151	1.416667	977.151214	1065.558626	-772.349777	987.309792	1078.499335	-516.980584	808.112869	1128.427189	-677.299548	810.632009	1117.998773	-591.853253	968.853835	917.64568	-464.132334	1079.488682	857.44899	-469.767934	1079.610858	727.782966	-503.653893	803.968972	895.350703	-812.581926	784.356914	762.127797	-793.4761	667.849454	706.352992	-751.711121	1260.602302	492.227228	-582.828901	1246.082467	420.938736	-516.295177	550.465544	492.240258	-685.9432389999999	457.4748	464.017804	-728.436901	385.905713	375.266285	-659.689539	1206.952711	146.483466	-612.040734	1436.28536	192.767702	-630.027053	1383.900955	133.366177	-546.708368	230.554006	389.461318	-626.23167	309.491288	168.633591	-629.268502	241.415126	221.474334	-704.533086	1004.638791	1559.528819	-780.80362	913.7642080000001	1568.431902	-465.021332	998.085225	1505.521208	-573.211605	889.514886	1583.386107	-646.573784	829.879283	1524.441916	-404.460196	777.559342	1451.788016	-403.188924	714.614669	1496.811356	-429.018082	595.097093	1414.137489	-394.039511	603.623434	1399.595646	-475.180663	1022.228081	1466.995066	-850.47578	1040.952223	1398.263334	-837.202267	958.240063	1369.798244	-879.242111	1003.121142	1205.48991	-914.65299	931.468838	1187.702118	-861.569625	663.450677	1341.886479	-359.620066	802.367788	1219.447807	-391.255312	753.424048	1196.420326	-343.433836	1070.09062	1252.272944	-854.637726	1109.077224	1352.132541	-710.829209	1155.652266	1295.7694	-712.12683	1280.162268	326.398245	-589.789659	
152	1.425	979.310757	1067.786999	-771.998075	988.0641010000001	1077.629642	-515.935917	809.555276	1130.154411	-675.969505	811.710135	1117.51991	-590.832864	968.409757	915.783565	-463.357216	1075.878925	849.644348	-467.627646	1071.457494	720.533402	-505.386548	807.800145	895.3524609999999	-812.2042279999999	788.9841740000001	761.908021	-792.449076	671.993297	705.941449	-753.6116060000001	1259.699638	485.601816	-583.793424	1250.107846	413.834273	-516.606752	546.589756	497.500376	-687.202298	450.359934	477.341385	-728.220796	373.719852	393.195085	-659.086799	1236.101938	137.682608	-613.05632	1461.236942	202.511237	-627.578681	1412.989477	137.166129	-546.092617	218.353137	417.027536	-621.119227	287.261699	193.163285	-632.195061	220.017487	251.237047	-704.2739350000001	1005.343887	1561.308866	-780.39215	913.5446930000001	1568.836843	-464.179197	998.1435719999999	1506.503572	-572.573495	889.606586	1584.369685	-646.718117	829.785202	1523.927598	-403.867671	777.611048	1451.045291	-403.072013	714.978022	1496.068795	-429.963457	595.094393	1413.776107	-394.204276	604.16647	1397.744178	-474.809795	1023.149002	1469.049509	-850.209059	1041.149978	1399.776729	-836.636978	958.854888	1372.697361	-879.969786	1001.171544	1207.921722	-915.742883	928.163061	1191.114875	-863.911185	664.5966550000001	1343.306078	-358.618524	804.605171	1221.760493	-388.003887	756.39975	1198.722621	-339.815173	1068.012222	1253.030558	-854.506681	1106.034577	1351.453605	-709.070279	1151.862221	1294.434312	-710.317774	1293.684133	322.474039	-589.7661450000001	
